<?xml version="1.0" encoding="UTF-8"?>
<svg id="Layer_1" data-name="Layer 1" xmlns="http://www.w3.org/2000/svg" viewBox="0 0 512 512">
  <defs>
    <style>
      .cls-1 {
        fill: #00b0f0;
        stroke-width: 0px;
      }
    </style>
  </defs>
  <path class="cls-1" d="m237.13,254.15v63.53h14.96v-63.53h-14.96Zm-26.92-24.21h-15.38c-1.71,0-1.42,1.57-1.42,1.57.28,1.99.71,5.27.71,12.11,0,15.1-1.85,36.75-18.37,57.4l-1.14,1.42s-9.97-69.51-10.11-70.79c0,0,0-1.57-1.42-1.57h-15.53c-1.42,0-1.42,1.57-1.42,1.57-.43,7.98-4.84,74.92-53.7,85.75,10.4,1.14,22.93-2.14,33.9-8.83,13.53-8.4,22.65-20.8,25.64-35.04,0,0,5.98,37.32,6.69,45.87v.57l-.43.28c-13.67,7.26-29.2,11.25-44.73,11.25-38.46,0-72.5-22.79-87.46-57.55,8.83,40.88,45.3,70.65,87.88,70.65,49.71,0,79.34-41.59,84.47-71.22,0,0,6.69,43.16,6.84,44.58h20.37c-.28-1.85-13.82-84.75-13.96-86.03,0,0,0-1.57-1.42-1.57v-.43Zm-172.21,36.32c0-45.58,38.46-82.61,85.61-82.61,29.2,0,56.41,14.67,72.22,38.46-11.54-32.48-43.73-54.7-79.77-54.7-46.58,0-84.47,36.32-84.47,80.9,0,12.25,2.99,24.21,8.55,35.18-1.28-5.56-2.14-11.4-2.14-17.09v-.14Zm356.95-2.99c-5.41-6.27-12.96-9.54-22.08-9.54s-17.09,2.99-23.36,8.97c-6.12,5.84-9.26,13.67-9.26,23.36s2.99,17.24,8.97,22.93,14.67,8.55,25.5,8.55c21.08,0,25.64-14.53,27.35-19.23l-5.41-1.71c-4.84,8.83-15.67,9.4-22.08,8.97-4.56-.28-8.69-1.85-11.96-4.13-3.28-2.42-5.56-5.84-6.55-11.11l-.28-1.99h47.29c-.14-10.4-2.85-18.8-8.12-24.93v-.14Zm-38.03,16.1c-.71,0-.71-.71-.71-1,.57-3.7,1.99-6.55,4.56-9.12,2.85-2.99,7.26-4.7,11.96-4.7,4.27,0,7.69,1.28,10.68,3.7,2.42,2.14,4.13,5.13,5.13,9.26.14.43.43,1.71-.71,1.71h-30.91v.14Zm85.61-25.92c-17.95,0-24.36,10.97-26.35,16.1,0,.14-.71,1.85-.71,1.85l5.98,1.99s3.85-11.11,19.09-10.4c15.38.57,13.53,13.25,13.53,15.24-8.55-2.56-20.65-2.28-28.63,1.28-9.97,4.56-11.54,13.67-11.11,20.37.43,9.97,9.26,16.95,20.65,17.52,10.26.57,14.81-1.71,19.09-5.84l-.14,5.84h13.53v-43.73c.28-7.55-4.99-20.37-24.93-20.37v.14Zm11.4,49.28c0,1-.28,1.71-1.14,2.14-2.56,1.28-7.98,2.99-14.67,2.56-6.98-.57-9.69-5.56-10.11-7.69-.14-.85-1.71-10.11,7.26-12.96,5.84-1.85,13.25-.71,17.24.43,1.14.28,1.42,1,1.42,2.42v13.25-.14Zm-202.83-72.79h-12.39c-1.85,0-1.57,1.85-1.57,1.85v13.39h15.24v-13.53s.14-1.57-1.42-1.57l.14-.14Zm76.06,0h-12.68c-1.28,0-1.28,1.42-1.28,1.42v26.07l-1.85-1c-1.99-1-3.99-1.71-6.12-2.14s-4.7-.57-7.55-.57c-9.97,0-18.09,2.85-24.07,8.69-5.84,5.7-8.97,13.96-8.97,24.07,0,8.97,2.56,16.52,7.55,22.51,4.99,5.84,12.25,8.83,21.79,8.83,13.67,0,19.09-8.26,19.09-8.26v7.98h15.38v-86.03s0-1.57-1.28-1.57Zm-14.81,70.36c-1.42,1.28-3.28,2.28-5.56,3.13-2.42,1-5.27,1.42-8.4,1.42-5.13,0-9.26-1.71-12.25-5.13-2.99-3.42-4.42-8.4-4.42-15.1s1.42-11.4,4.13-14.39c2.85-3.13,7.12-4.7,12.82-4.7,2.99,0,5.84.43,8.4,1.42,2.28.85,3.99,1.71,5.27,2.85.43.43.85,1.14.85,2.14v26.07c0,1-.43,1.71-.85,2.14v.14Zm164.37-80.9c-5.27,0-9.26,3.99-9.26,9.26s3.99,9.26,9.26,9.26,9.26-3.99,9.26-9.26-3.99-9.26-9.26-9.26Zm0,1.28c4.42,0,7.83,3.56,7.83,7.98s-3.28,7.98-7.83,7.98-7.83-3.56-7.83-7.98,3.28-7.98,7.83-7.98Zm-1.99,8.55h2.28l2.99,4.7h1.57l-3.13-4.7c1.42-.28,2.71-1.14,2.71-2.99s-1-2.99-3.42-2.99h-4.13v10.68h1.28v-4.7h-.14Zm0-1.14v-3.7h2.42c1.28,0,2.56.28,2.56,1.85,0,1.85-1.57,1.85-3.13,1.85h-1.85Z"/>
</svg>